<svg width="67" height="68" viewBox="0 0 67 68" fill="none" xmlns="http://www.w3.org/2000/svg">
<path d="M57.91 68H9.27003C8.07809 68.0005 6.8998 67.7462 5.81421 67.2541C4.72861 66.7619 3.76081 66.0433 2.97571 65.1465C2.19061 64.2496 1.60636 63.1953 1.26216 62.0541C0.917961 60.913 0.821764 59.7114 0.980024 58.53L7.76002 7.94999C8.0312 5.94411 9.02092 4.10472 10.5455 2.77326C12.07 1.4418 14.0259 0.708669 16.05 0.709967H50C51.9928 0.707522 53.9207 1.41784 55.4355 2.71259C56.9503 4.00734 57.9522 5.80114 58.26 7.76996L66.19 58.35C66.3783 59.5444 66.3049 60.7654 65.9749 61.9287C65.6449 63.092 65.0663 64.1697 64.2789 65.0874C63.4915 66.005 62.5142 66.7408 61.4145 67.2437C60.3149 67.7465 59.1192 68.0046 57.91 68Z" fill="#FFC1EB"/>
</svg>
