<svg width="241" height="165" viewBox="0 0 241 165" fill="none" xmlns="http://www.w3.org/2000/svg">
<path d="M226.39 164.09H14.23C10.5169 164.09 6.95599 162.615 4.33048 159.99C1.70497 157.364 0.22998 153.803 0.22998 150.09V14.67C0.22998 10.957 1.70497 7.39605 4.33048 4.77054C6.95599 2.14503 10.5169 0.670044 14.23 0.670044H226.39C230.103 0.670044 233.664 2.14503 236.289 4.77054C238.915 7.39605 240.39 10.957 240.39 14.67V150.06C240.394 151.901 240.035 153.725 239.333 155.427C238.631 157.129 237.6 158.676 236.3 159.979C235 161.282 233.455 162.316 231.754 163.021C230.054 163.727 228.231 164.09 226.39 164.09V164.09ZM14.23 4.64005C11.5778 4.64005 9.03428 5.69361 7.15891 7.56897C5.28355 9.44433 4.22998 11.9879 4.22998 14.64V150.06C4.22998 152.712 5.28355 155.256 7.15891 157.131C9.03428 159.006 11.5778 160.06 14.23 160.06H226.39C229.042 160.06 231.586 159.006 233.461 157.131C235.336 155.256 236.39 152.712 236.39 150.06V14.67C236.39 12.0179 235.336 9.47433 233.461 7.59897C231.586 5.7236 229.042 4.67004 226.39 4.67004L14.23 4.64005Z" fill="black"/>
</svg>
