<svg width="22" height="22" viewBox="0 0 22 22" fill="none" xmlns="http://www.w3.org/2000/svg">
<path d="M10.68 21.39C8.61303 21.39 6.59261 20.7764 4.8747 19.627C3.15678 18.4777 1.81872 16.8442 1.03003 14.9336C0.241342 13.0231 0.0374994 10.9213 0.444398 8.89481C0.851297 6.86829 1.85061 5.00819 3.31568 3.55014C4.78074 2.09209 6.64563 1.10173 8.67407 0.704561C10.7025 0.307396 12.8032 0.521273 14.71 1.31912C16.6167 2.11698 18.2438 3.4629 19.3849 5.18631C20.526 6.90973 21.1299 8.93309 21.12 11C21.1042 13.7594 19.9976 16.4005 18.0417 18.347C16.0858 20.2935 13.4394 21.3875 10.68 21.39V21.39ZM10.68 4.51004C9.40628 4.51004 8.16117 4.88773 7.10211 5.59537C6.04306 6.30301 5.21765 7.30881 4.73023 8.48557C4.2428 9.66232 4.11528 10.9572 4.36377 12.2064C4.61226 13.4556 5.22557 14.6032 6.12622 15.5038C7.02687 16.4045 8.17441 17.0178 9.42365 17.2663C10.6729 17.5148 11.9677 17.3872 13.1445 16.8998C14.3212 16.4124 15.327 15.587 16.0347 14.5279C16.7423 13.4689 17.12 12.2238 17.12 10.95C17.1174 9.24286 16.438 7.60636 15.2308 6.3992C14.0237 5.19204 12.3872 4.51269 10.68 4.51004Z" fill="black"/>
</svg>
