<svg width="45" height="66" viewBox="0 0 45 66" fill="none" xmlns="http://www.w3.org/2000/svg">
<path d="M32.77 6.65994V11.6599C32.7691 14.166 31.7962 16.574 30.0562 18.3775C28.3161 20.181 25.9444 21.2393 23.44 21.3299C22.85 21.3299 22.28 21.3299 21.71 21.3299C19.1377 21.2493 16.6981 20.1691 14.9093 18.3187C13.1205 16.4683 12.1235 13.9936 12.13 11.42V6.66995C12.13 5.15291 11.5274 3.69798 10.4547 2.62527C9.38194 1.55257 7.92701 0.949951 6.40997 0.949951V0.949951C4.89293 0.949951 3.43806 1.55257 2.36536 2.62527C1.29265 3.69798 0.690002 5.15291 0.690002 6.66995V58.5999C0.690002 59.5586 0.878807 60.5078 1.24567 61.3935C1.61253 62.2792 2.15026 63.0839 2.82812 63.7618C3.50599 64.4397 4.31073 64.9774 5.19641 65.3443C6.08209 65.7111 7.03134 65.8999 7.98999 65.8999H36.91C37.8686 65.8999 38.8179 65.7111 39.7036 65.3443C40.5893 64.9774 41.394 64.4397 42.0719 63.7618C42.7498 63.0839 43.2874 62.2792 43.6543 61.3935C44.0212 60.5078 44.21 59.5586 44.21 58.5999V6.65994C44.21 5.1429 43.6074 3.688 42.5347 2.6153C41.462 1.54259 40.007 0.939941 38.49 0.939941V0.939941C36.973 0.939941 35.5181 1.54259 34.4454 2.6153C33.3727 3.688 32.77 5.1429 32.77 6.65994Z" fill="white"/>
</svg>
