<svg width="29" height="21" viewBox="0 0 29 21" fill="none" xmlns="http://www.w3.org/2000/svg">
<path d="M2.33998 20.66C1.80955 20.66 1.30084 20.4493 0.925767 20.0742C0.550694 19.6991 0.339982 19.1904 0.339982 18.66C0.169982 11.66 2.77999 7.43 4.99999 5.13C7.47463 2.53436 10.866 1.00912 14.45 0.880005C17.9493 0.939404 21.284 2.37676 23.73 4.88C26 7.16 28.73 11.4 28.61 18.64C28.61 19.1704 28.3993 19.6791 28.0242 20.0542C27.6491 20.4293 27.1404 20.64 26.61 20.64C26.0796 20.64 25.5708 20.4293 25.1958 20.0542C24.8207 19.6791 24.61 19.1704 24.61 18.64C24.68 12.79 22.61 9.49 20.9 7.75C19.1967 6.02741 16.9008 5.01893 14.48 4.92999C11.9697 5.0295 9.59764 6.10607 7.86998 7.92999C5.44998 10.43 4.22998 14.11 4.33998 18.58C4.33998 19.1104 4.12927 19.6191 3.7542 19.9942C3.37912 20.3693 2.87042 20.58 2.33998 20.58V20.66Z" fill="black"/>
</svg>
