<svg width="253" height="206" viewBox="0 0 253 206" fill="none" xmlns="http://www.w3.org/2000/svg">
<path d="M235 205.42H18.91C14.1361 205.42 9.55772 203.524 6.18207 200.148C2.80641 196.772 0.909973 192.194 0.909973 187.42V18.62C0.909973 13.8461 2.80641 9.26774 6.18207 5.89209C9.55772 2.51644 14.1361 0.619995 18.91 0.619995H235C239.774 0.619995 244.352 2.51644 247.728 5.89209C251.104 9.26774 253 13.8461 253 18.62V187.44C252.995 192.21 251.096 196.784 247.721 200.155C244.346 203.526 239.77 205.42 235 205.42V205.42ZM18.91 4.64001C15.1969 4.64001 11.636 6.115 9.0105 8.74051C6.38499 11.366 4.90997 14.927 4.90997 18.64V187.44C4.90997 191.153 6.38499 194.714 9.0105 197.339C11.636 199.965 15.1969 201.44 18.91 201.44H235C238.713 201.44 242.274 199.965 244.899 197.339C247.525 194.714 249 191.153 249 187.44V18.62C249 14.907 247.525 11.346 244.899 8.72052C242.274 6.09501 238.713 4.62 235 4.62L18.91 4.64001Z" fill="black"/>
</svg>
