<svg width="40" height="63" viewBox="0 0 40 63" fill="none" xmlns="http://www.w3.org/2000/svg">
<path d="M2.56999 62.59C2.21646 62.5863 1.87067 62.486 1.56999 62.3C1.11724 62.0261 0.791434 61.584 0.663983 61.0704C0.536531 60.5569 0.61783 60.0138 0.889996 59.56L36 1.27001C36.1359 1.04479 36.3148 0.848553 36.5266 0.692494C36.7384 0.536434 36.9788 0.423606 37.2342 0.360462C37.4895 0.297318 37.7548 0.285066 38.0149 0.324452C38.275 0.363837 38.5248 0.454097 38.75 0.590016C38.9752 0.725934 39.1714 0.904868 39.3275 1.11663C39.4836 1.32839 39.5964 1.56879 39.6595 1.82415C39.7227 2.07951 39.7349 2.34482 39.6955 2.60491C39.6562 2.865 39.5659 3.1148 39.43 3.34002L4.31999 61.62C4.13916 61.9211 3.8822 62.1693 3.57499 62.3396C3.26779 62.5099 2.92117 62.5962 2.56999 62.59Z" fill="black"/>
</svg>
