<svg width="22" height="21" viewBox="0 0 22 21" fill="none" xmlns="http://www.w3.org/2000/svg">
<path d="M11.35 21C9.28512 21 7.26669 20.3877 5.54984 19.2405C3.833 18.0934 2.49487 16.4629 1.70469 14.5552C0.914512 12.6476 0.707745 10.5484 1.11057 8.52325C1.5134 6.49809 2.50775 4.63785 3.96781 3.17779C5.42787 1.71773 7.28805 0.723442 9.31321 0.320612C11.3384 -0.0822177 13.4375 0.124488 15.3452 0.914667C17.2529 1.70485 18.8833 3.04297 20.0305 4.75982C21.1777 6.47667 21.79 8.49515 21.79 10.56C21.7873 13.328 20.6865 15.982 18.7292 17.9393C16.7719 19.8966 14.118 20.9973 11.35 21V21ZM11.35 4.11999C10.0762 4.11999 8.83119 4.49768 7.77213 5.20532C6.71308 5.91295 5.88761 6.91876 5.40019 8.09551C4.91276 9.27227 4.78524 10.5672 5.03373 11.8164C5.28222 13.0656 5.89553 14.2131 6.79618 15.1138C7.69683 16.0144 8.84437 16.6278 10.0936 16.8763C11.3428 17.1248 12.6377 16.9972 13.8144 16.5098C14.9912 16.0223 15.997 15.1969 16.7046 14.1379C17.4123 13.0788 17.79 11.8337 17.79 10.56C17.7794 8.85802 17.0966 7.22919 15.8903 6.0285C14.684 4.82781 13.052 4.15262 11.35 4.15002V4.11999Z" fill="black"/>
</svg>
