<svg width="93" height="93" viewBox="0 0 93 93" fill="none" xmlns="http://www.w3.org/2000/svg">
<path d="M80.54 92.6H12.54C9.32637 92.5974 6.24515 91.3196 3.97278 89.0472C1.70041 86.7749 0.422631 83.6937 0.419983 80.48V12.42C0.422631 9.20643 1.70041 6.12521 3.97278 3.85284C6.24515 1.58048 9.32637 0.302697 12.54 0.300049H80.54C83.7536 0.302697 86.8349 1.58048 89.1072 3.85284C91.3796 6.12521 92.6573 9.20643 92.66 12.42V80.48C92.6573 83.6937 91.3796 86.7749 89.1072 89.0472C86.8349 91.3196 83.7536 92.5974 80.54 92.6V92.6ZM12.54 4.30005C10.3872 4.3027 8.32343 5.15905 6.80121 6.68127C5.27899 8.2035 4.42263 10.2673 4.41998 12.42V80.48C4.42263 82.6328 5.27899 84.6966 6.80121 86.2189C8.32343 87.7411 10.3872 88.5974 12.54 88.6H80.54C82.6927 88.5974 84.7566 87.7411 86.2788 86.2189C87.801 84.6966 88.6573 82.6328 88.66 80.48V12.42C88.6573 10.2673 87.801 8.2035 86.2788 6.68127C84.7566 5.15905 82.6927 4.3027 80.54 4.30005H12.54Z" fill="black"/>
</svg>
